<!DOCTYPE svg PUBLIC "-//W3C//DTD SVG 1.1//EN" "http://www.w3.org/Graphics/SVG/1.1/DTD/svg11.dtd">
<!-- Uploaded to: SVG Repo, www.svgrepo.com, Transformed by: SVG Repo Mixer Tools -->
<svg width="800px" height="800px" viewBox="0 -56 1136 1136" class="icon" version="1.1" xmlns="http://www.w3.org/2000/svg" fill="#000000">
<g id="SVGRepo_bgCarrier" stroke-width="0"/>
<g id="SVGRepo_tracerCarrier" stroke-linecap="round" stroke-linejoin="round"/>
<g id="SVGRepo_iconCarrier">
<path d="M338.116923 331.421538s-38.006154-196.332308 157.144615-230.203076c0 0 182.744615 1.378462 186.88 153.00923 4.135385 151.630769 0 6.695385 0 6.695385s16.344615 152.615385-74.436923 233.353846c0 0-41.944615 77.981538 28.356923 94.326154l-100.233846 101.612308s-47.458462 47.458462-48.836923 188.258461c0 0-190.818462 2.756923-247.729231-32.492308 0 0-77.193846-17.526154-60.84923-112.443076 0 0 35.249231-86.646154 201.64923-142.178462 0 0 53.76-10.830769 49.821539-79.950769 0.196923 0-76.8-56.910769-91.766154-179.987693z" fill="#b80d54"/>
<path d="M476.553846 890.683077c-41.550769 0-188.849231-2.166154-242.018461-33.476923-13.587692-4.135385-84.48-30.129231-68.135385-125.636923l0.196923-1.378462 0.590769-1.181538c1.575385-3.741538 39.187692-92.553846 209.132308-149.070769l1.378462-0.393847c4.135385-0.984615 40.763077-10.436923 40.36923-62.030769-17.723077-14.966154-78.375385-73.846154-91.963077-184.123077-1.378462-7.876923-15.950769-95.113846 32.098462-165.021538 28.947692-41.944615 74.436923-68.529231 134.892308-79.163077l0.984615-0.196923h1.181538c1.969231 0 194.56 3.347692 198.892308 164.824615 0 3.150769 0.196923 6.301538 0.196923 9.255385 0.393846 5.710769 1.181538 17.92 0.984616 34.264615 0.196923 4.135385 0.196923 7.68 0.196923 10.633846l0.196923 11.618462v3.150769h-0.196923c-0.196923 3.741538-1.181538 6.498462-2.56 8.270769-5.316923 52.381538-23.04 122.683077-76.012308 170.732308-5.316923 11.027692-14.966154 37.612308-6.892308 55.532308 4.332308 9.649231 13.587692 15.950769 28.356923 19.298461l21.267693 4.923077-115.593846 117.169231c-0.393846 0.393846-43.913846 47.064615-45.292308 179.790769l-0.196923 11.815385-11.815385 0.196923c-0.590769 0-4.332308 0.196923-10.24 0.196923z m-286.326154-153.6c-13.193846 81.132308 49.230769 96.295385 51.79077 96.886154l1.96923 0.393846 1.772308 0.984615c41.156923 25.403077 169.944615 30.72 229.415385 30.72 3.938462-134.892308 50.018462-182.744615 51.987692-184.713846l86.646154-87.827692c-11.815385-6.104615-20.48-14.769231-25.6-26.190769-15.36-33.673846 7.68-76.996923 8.664615-78.769231l0.984616-1.969231 1.575384-1.378461c59.667692-53.169231 70.301538-140.603077 71.483077-188.849231l-0.984615-35.249231h0.196923c0-2.166154-0.196923-4.529231-0.196923-6.695385-3.544615-133.710769-157.932308-140.603077-173.686154-140.996923-53.169231 9.452308-92.947692 32.492308-117.76 68.726154-43.716923 63.409231-28.356923 146.116923-28.16 146.904616l0.196923 0.787692c13.981538 115.987692 86.252308 171.126154 87.04 171.716923l4.529231 3.347692 0.393846 5.710769c3.544615 62.227692-36.430769 87.433846-58.88 92.356924-148.086154 49.624615-188.652308 124.455385-193.378462 134.104615z" fill="#ffffff"/>
<path d="M570.486154 733.538462l-30.72 135.483076s-8.073846 14.966154 6.695384 17.526154c14.966154 2.756923 144.935385-38.006154 144.935385-38.006154l182.744615-181.366153-114.806153-117.76-188.849231 184.123077z m33.083077 108.307692l-21.661539-20.283077 21.661539-67.741539 10.830769 10.83077h46.08v39.187692l8.073846 20.283077-64.984615 17.723077z" fill="#b80d54"/>
<path d="M547.446154 898.756923c-1.181538 0-2.166154 0-2.953846-0.196923-10.633846-1.969231-15.163077-8.270769-16.935385-12.012308-4.135385-8.664615-0.984615-17.723077 0.787692-21.661538l31.113847-137.452308 200.073846-195.150769 132.135384 135.089231-193.575384 192-2.756923 0.787692c-47.261538 14.769231-126.621538 38.596923-147.889231 38.596923z m34.264615-159.113846L551.384615 873.156923l-0.590769 0.984615c15.950769-1.575385 78.178462-19.101538 134.301539-36.430769l172.110769-170.732307-98.067692-100.43077-177.427693 173.095385z m18.510769 115.790769L567.926154 825.107692l30.129231-94.12923 21.464615 21.464615h53.169231V801.476923l12.406154 30.916923-84.873847 23.04z m-4.332307-37.612308l11.027692 10.436924 45.292308-12.209231-3.938462-9.846154v-29.341539h-38.990769l-0.196923-0.196923-13.193846 41.156923z" fill="#ffffff"/>
<path d="M789.070769 522.24l106.929231 111.064615 25.796923-24.418461-111.064615-109.686154z" fill="#b80d54"/>
<path d="M895.606154 650.436923l-123.273846-128 38.203077-40.566154 128.984615 127.409231-43.913846 41.156923z m-89.796923-128.196923l90.584615 93.932308 7.876923-7.483077-93.341538-91.963077-5.12 5.513846z" fill="#ffffff"/>
<path d="M961.575385 508.849231c-21.661538-24.418462-63.606154-59.667692-63.606154-59.667693s-29.538462-9.452308-35.052308 0c-5.513846 9.452308-21.661538 27.569231-21.661538 27.569231l105.550769 109.095385 31.113846-35.249231c-0.196923 0.196923 5.316923-17.526154-16.344615-41.747692z" fill="#b80d54"/>
<path d="M947.003077 603.963077l-122.683077-126.818462 7.68-8.467692c4.332308-4.726154 16.344615-18.707692 20.283077-25.6 9.058462-15.556923 34.855385-10.24 49.427692-5.513846l2.363077 0.787692 1.772308 1.575385c1.772308 1.378462 42.929231 36.036923 64.984615 60.849231 25.403077 28.750769 19.495385 51.2 18.707693 53.563077l-0.787693 2.56-41.747692 47.064615z m-89.403077-127.606154l88.615385 91.766154 19.88923-22.646154c0-4.332308-1.378462-14.572308-13.784615-28.553846-18.313846-20.48-52.184615-49.624615-60.455385-56.713846-7.483077-2.166154-16.147692-3.347692-19.88923-2.953846-3.544615 5.907692-9.649231 13.390769-14.375385 19.101538z" fill="#ffffff"/>
<path d="M660.48 764.652308H614.4l-10.830769-10.83077-21.661539 67.741539 21.661539 20.283077 64.984615-17.723077-8.073846-20.283077z" fill="#b80d54"/>
<path d="M600.221538 855.433846L567.926154 825.107692l30.129231-94.12923 21.464615 21.464615h53.169231V801.476923l12.406154 30.916923-84.873847 23.04z m-4.332307-37.612308l11.027692 10.436924 45.292308-12.209231-3.938462-9.846154v-29.341539h-38.990769l-0.196923-0.196923-13.193846 41.156923z" fill="#ffffff"/>
</g>
</svg>