<?xml version="1.0" encoding="utf-8"?>
<!-- Generator: Adobe Illustrator 25.3.1, SVG Export Plug-In . SVG Version: 6.00 Build 0)  -->
<svg version="1.1" id="Layer_1" xmlns="http://www.w3.org/2000/svg" xmlns:xlink="http://www.w3.org/1999/xlink" x="0px" y="0px"
	 viewBox="0 0 105.66 218.51" style="enable-background:new 0 0 105.66 218.51;" xml:space="preserve">
<style type="text/css">
	.st0{fill:#070606;}
	.st1{fill:#F40F2C;}
	.st2{fill:none;stroke:#CDC9C0;stroke-miterlimit:10;}
	.st3{fill:none;stroke:#070606;stroke-width:1.0454;stroke-miterlimit:10;}
	.st4{fill:#CDC9C0;}
	.st5{fill:#14384D;}
	.st6{fill:none;stroke:#14384D;stroke-width:2.0308;stroke-miterlimit:10;}
	.st7{stroke:#090809;stroke-width:2.0308;stroke-miterlimit:10;}
	.st8{fill:#E0143D;}
</style>
<path class="st8" d="M77.64,202.74l-0.02,0.01c7.33-7.73,11.6-18.07,11.6-29.31c0-23.38-12.02-30.76-12.02-30.76
	c12.68-0.73,27.43-15.8,27.43-28.66H77.18l-9.56,0.06l16.3-5.35V38.12c0-8.53-1.42-15.54-4.46-20.89
	C75.33,9.31,64.54,2.13,49.09,2.13c-11.31,0-16.4,3.34-16.4,3.34v2.92C32.52,31.11,18.45,46.97,1.03,51.98c0,0,2.98,9.37,13.91,8.06
	l22.08-7.3l4.99-1.41L43.63,51c4.61,0,8.35,3.74,8.35,8.35c0,2.32-0.94,4.41-2.47,5.92c-8.37,10.42-32.26,23.06-32.26,48.75
	c0,39.15,44.19,41.4,44.19,70.85c0,14.37-10.24,23.56-20.76,23.56c-7.39,0-9.62-1.98-9.99-2.37l-0.05-0.07
	c5.3,0.4,10.25-2.2,12.51-6.56c2.62-5.04,0.45-10.17,0.29-10.53c-0.46-1.05-1.46-2.88-3.39-4.43c-3.03-2.42-7.08-3.2-10.51-2.4
	c-5.77,1.35-9.07,7-9.95,11.35c-1.7,8.45,4.87,16.4,10.64,19.82c0,0,7.03,4.23,19.5,2.92c9.59-1.01,17.46-5.35,17.46-5.35
	 M67.15,210.8c0.01-0.01,0.02-0.01,0.03-0.02c6.13-3.43,10.43-8.04,10.43-8.04 M36.93,41.56c-2.09,0-3.78-1.69-3.78-3.78
	s1.69-3.78,3.78-3.78s3.78,1.69,3.78,3.78S39.02,41.56,36.93,41.56z"/>
</svg>
